<svg width="149" height="47" viewBox="0 0 149 47" fill="none" xmlns="http://www.w3.org/2000/svg">
<rect x="0.893646" y="0.378662" width="148.009" height="46.1532" rx="7.95745" fill="url(#paint0_linear_0_588)"/>
<rect x="0.893555" y="0.378662" width="148.009" height="46.1532" rx="7.95745" fill="url(#paint1_linear_0_588)"/>
<path d="M28.3657 18.456C29.2297 18.456 29.9377 18.668 30.4897 19.092C31.0417 19.516 31.3177 20.056 31.3177 20.712C31.3177 21.616 30.8417 22.268 29.8897 22.668C30.3937 22.82 30.7937 23.064 31.0897 23.4C31.3857 23.736 31.5337 24.164 31.5337 24.684C31.5337 25.396 31.2497 25.984 30.6817 26.448C30.1137 26.912 29.3697 27.144 28.4497 27.144C27.6577 27.144 26.9737 27.032 26.3977 26.808C25.8297 26.576 25.3017 26.228 24.8137 25.764L25.6177 24.744C26.4017 25.488 27.3337 25.86 28.4137 25.86C28.8777 25.86 29.2657 25.748 29.5777 25.524C29.8977 25.292 30.0577 24.984 30.0577 24.6C30.0577 24.184 29.8817 23.876 29.5297 23.676C29.1777 23.476 28.7137 23.376 28.1377 23.376H27.1897V22.152H28.1257C28.6697 22.152 29.0937 22.048 29.3977 21.84C29.7017 21.624 29.8537 21.32 29.8537 20.928C29.8537 20.576 29.7057 20.292 29.4097 20.076C29.1217 19.86 28.7417 19.752 28.2697 19.752C27.3497 19.752 26.5657 20.064 25.9177 20.688L25.1257 19.728C26.0137 18.88 27.0937 18.456 28.3657 18.456ZM38.4155 27H36.9755V26.22C36.4635 26.828 35.7795 27.132 34.9235 27.132C34.2915 27.132 33.7555 26.96 33.3155 26.616C32.8835 26.264 32.6675 25.776 32.6675 25.152C32.6675 24.472 32.9035 23.956 33.3755 23.604C33.8475 23.252 34.4675 23.076 35.2355 23.076C35.8515 23.076 36.4355 23.164 36.9875 23.34V23.22C36.9875 22.78 36.8515 22.444 36.5795 22.212C36.3155 21.98 35.9315 21.864 35.4275 21.864C34.8515 21.864 34.2475 21.996 33.6155 22.26L33.2195 21.096C34.0035 20.744 34.8075 20.568 35.6315 20.568C36.5515 20.568 37.2435 20.8 37.7075 21.264C38.1795 21.728 38.4155 22.388 38.4155 23.244V27ZM37.0115 24.708V24.348C36.5795 24.18 36.0955 24.096 35.5595 24.096C35.1035 24.096 34.7475 24.184 34.4915 24.36C34.2355 24.536 34.1075 24.784 34.1075 25.104C34.1075 25.392 34.2235 25.62 34.4555 25.788C34.6875 25.956 34.9795 26.04 35.3315 26.04C35.8195 26.04 36.2195 25.916 36.5315 25.668C36.8515 25.42 37.0115 25.1 37.0115 24.708ZM39.4104 28.524V25.752H40.0944C40.5664 24.808 40.8024 23.372 40.8024 21.444V20.664H45.7104V25.752H46.6104L46.4184 28.524H45.2064V27H40.7664L40.6224 28.524H39.4104ZM41.5824 25.752H44.2584V21.912H42.1704V22.752C42.1704 23.928 41.9744 24.928 41.5824 25.752ZM53.1342 27H51.6942V26.22C51.1822 26.828 50.4982 27.132 49.6422 27.132C49.0102 27.132 48.4742 26.96 48.0342 26.616C47.6022 26.264 47.3862 25.776 47.3862 25.152C47.3862 24.472 47.6222 23.956 48.0942 23.604C48.5662 23.252 49.1862 23.076 49.9542 23.076C50.5702 23.076 51.1542 23.164 51.7062 23.34V23.22C51.7062 22.78 51.5702 22.444 51.2982 22.212C51.0342 21.98 50.6502 21.864 50.1462 21.864C49.5702 21.864 48.9662 21.996 48.3342 22.26L47.9382 21.096C48.7222 20.744 49.5262 20.568 50.3502 20.568C51.2702 20.568 51.9622 20.8 52.4262 21.264C52.8982 21.728 53.1342 22.388 53.1342 23.244V27ZM51.7302 24.708V24.348C51.2982 24.18 50.8142 24.096 50.2782 24.096C49.8222 24.096 49.4662 24.184 49.2102 24.36C48.9542 24.536 48.8262 24.784 48.8262 25.104C48.8262 25.392 48.9422 25.62 49.1742 25.788C49.4062 25.956 49.6982 26.04 50.0502 26.04C50.5382 26.04 50.9382 25.916 51.2502 25.668C51.5702 25.42 51.7302 25.1 51.7302 24.708ZM59.0132 19.488C58.6852 19.784 58.2692 19.932 57.7652 19.932C57.2612 19.932 56.8412 19.784 56.5052 19.488C56.1692 19.184 55.9612 18.776 55.8812 18.264L56.7692 18.096C56.9372 18.64 57.2692 18.912 57.7652 18.912C58.2612 18.912 58.5932 18.64 58.7612 18.096L59.6372 18.264C59.5572 18.776 59.3492 19.184 59.0132 19.488ZM54.8612 27V20.664H56.2772V24.912C57.6052 23.024 58.6052 21.608 59.2772 20.664H60.6452V27H59.2412V22.776L56.2292 27H54.8612ZM63.8227 27V21.912H61.7827V20.664H67.3267V21.912H65.2867V27H63.8227ZM71.3824 27.144C70.4544 27.144 69.6784 26.836 69.0544 26.22C68.4384 25.604 68.1304 24.808 68.1304 23.832C68.1304 22.912 68.4224 22.132 69.0064 21.492C69.5904 20.852 70.3304 20.532 71.2264 20.532C72.1864 20.532 72.9304 20.86 73.4584 21.516C73.9944 22.164 74.2624 22.972 74.2624 23.94C74.2624 24.116 74.2544 24.252 74.2384 24.348H69.5824C69.6624 24.852 69.8664 25.248 70.1944 25.536C70.5224 25.816 70.9264 25.956 71.4064 25.956C72.0304 25.956 72.6024 25.704 73.1224 25.2L73.9744 25.956C73.3184 26.748 72.4544 27.144 71.3824 27.144ZM69.5704 23.388H72.8224C72.7744 22.9 72.6104 22.5 72.3304 22.188C72.0504 21.876 71.6784 21.72 71.2144 21.72C70.7744 21.72 70.4064 21.876 70.1104 22.188C69.8144 22.492 69.6344 22.892 69.5704 23.388ZM79.3182 27V20.664H82.5702C83.2022 20.664 83.7062 20.808 84.0822 21.096C84.4662 21.376 84.6582 21.76 84.6582 22.248C84.6582 22.912 84.3182 23.396 83.6382 23.7C84.5102 23.948 84.9462 24.476 84.9462 25.284C84.9462 25.82 84.7342 26.24 84.3102 26.544C83.8942 26.848 83.3262 27 82.6062 27H79.3182ZM80.7462 25.848H82.3902C82.7342 25.848 82.9982 25.776 83.1822 25.632C83.3742 25.48 83.4702 25.28 83.4702 25.032C83.4702 24.792 83.3702 24.604 83.1702 24.468C82.9782 24.332 82.6942 24.264 82.3182 24.264H80.7462V25.848ZM80.7462 23.28H82.2342C82.5302 23.28 82.7622 23.208 82.9302 23.064C83.0982 22.92 83.1822 22.732 83.1822 22.5C83.1822 22.284 83.1062 22.112 82.9542 21.984C82.8022 21.848 82.5702 21.78 82.2582 21.78H80.7462V23.28ZM89.4083 27.144C88.4483 27.144 87.6483 26.824 87.0083 26.184C86.3683 25.544 86.0483 24.764 86.0483 23.844C86.0483 22.924 86.3723 22.144 87.0203 21.504C87.6683 20.856 88.4723 20.532 89.4323 20.532C90.3923 20.532 91.1923 20.852 91.8323 21.492C92.4803 22.132 92.8043 22.916 92.8043 23.844C92.8043 24.756 92.4803 25.536 91.8323 26.184C91.1843 26.824 90.3763 27.144 89.4083 27.144ZM89.4323 25.884C90.0083 25.884 90.4723 25.688 90.8243 25.296C91.1763 24.904 91.3523 24.42 91.3523 23.844C91.3523 23.276 91.1683 22.796 90.8003 22.404C90.4323 22.004 89.9683 21.804 89.4083 21.804C88.8403 21.804 88.3803 22 88.0283 22.392C87.6763 22.784 87.5003 23.268 87.5003 23.844C87.5003 24.404 87.6843 24.884 88.0523 25.284C88.4203 25.684 88.8803 25.884 89.4323 25.884ZM94.2831 27V20.664H99.9351V27H98.4831V21.912H95.7351V27H94.2831ZM101.76 28.92V20.664H103.212V21.72C103.772 20.928 104.488 20.532 105.36 20.532C106.16 20.532 106.852 20.832 107.436 21.432C108.02 22.024 108.312 22.828 108.312 23.844C108.312 24.844 108.02 25.644 107.436 26.244C106.852 26.836 106.16 27.132 105.36 27.132C104.488 27.132 103.772 26.76 103.212 26.016V28.92H101.76ZM105.024 25.872C105.536 25.872 105.964 25.684 106.308 25.308C106.66 24.932 106.836 24.436 106.836 23.82C106.836 23.22 106.66 22.732 106.308 22.356C105.956 21.98 105.528 21.792 105.024 21.792C104.52 21.792 104.084 21.984 103.716 22.368C103.356 22.752 103.176 23.244 103.176 23.844C103.176 24.436 103.356 24.924 103.716 25.308C104.084 25.684 104.52 25.872 105.024 25.872ZM112.811 27.144C111.851 27.144 111.051 26.824 110.411 26.184C109.771 25.544 109.451 24.764 109.451 23.844C109.451 22.924 109.775 22.144 110.423 21.504C111.071 20.856 111.875 20.532 112.835 20.532C113.795 20.532 114.595 20.852 115.235 21.492C115.883 22.132 116.207 22.916 116.207 23.844C116.207 24.756 115.883 25.536 115.235 26.184C114.587 26.824 113.779 27.144 112.811 27.144ZM112.835 25.884C113.411 25.884 113.875 25.688 114.227 25.296C114.579 24.904 114.755 24.42 114.755 23.844C114.755 23.276 114.571 22.796 114.203 22.404C113.835 22.004 113.371 21.804 112.811 21.804C112.243 21.804 111.783 22 111.431 22.392C111.079 22.784 110.903 23.268 110.903 23.844C110.903 24.404 111.087 24.884 111.455 25.284C111.823 25.684 112.283 25.884 112.835 25.884ZM120.613 27.144C119.677 27.144 118.897 26.828 118.273 26.196C117.649 25.556 117.337 24.78 117.337 23.868V23.844C117.337 22.932 117.649 22.152 118.273 21.504C118.905 20.856 119.689 20.532 120.625 20.532C121.649 20.532 122.493 20.896 123.157 21.624L122.257 22.596C121.753 22.068 121.205 21.804 120.613 21.804C120.093 21.804 119.657 22 119.305 22.392C118.961 22.784 118.789 23.26 118.789 23.82V23.844C118.789 24.42 118.965 24.904 119.317 25.296C119.677 25.688 120.133 25.884 120.685 25.884C121.269 25.884 121.817 25.62 122.329 25.092L123.205 25.956C122.861 26.34 122.485 26.636 122.077 26.844C121.677 27.044 121.189 27.144 120.613 27.144Z" fill="white"/>
<defs>
<linearGradient id="paint0_linear_0_588" x1="113.9" y1="44.9726" x2="104.157" y2="-1.4591" gradientUnits="userSpaceOnUse">
<stop stop-color="#784DFF"/>
<stop offset="1" stop-color="#4614E8"/>
</linearGradient>
<linearGradient id="paint1_linear_0_588" x1="113.9" y1="44.9726" x2="104.157" y2="-1.4591" gradientUnits="userSpaceOnUse">
<stop stop-color="#2641D1"/>
<stop offset="1" stop-color="#3333A3"/>
</linearGradient>
</defs>
</svg>
